<svg xmlns="http://www.w3.org/2000/svg" width="500" height="500" viewBox="0 0 500 500">
<g>
<path d="M 259.30 406.33 C258.09,406.08 255.72,404.31 254.05,402.40 L 251.00 398.93 L 251.00 250.28 L 256.90 246.64 C260.15,244.64 263.10,243.00 263.45,243.00 C263.81,243.00 270.19,239.40 277.62,235.00 C285.05,230.60 291.34,227.00 291.59,227.00 C291.84,227.00 296.42,224.36 301.77,221.13 C307.12,217.90 314.42,213.67 318.00,211.73 C321.58,209.79 325.51,206.75 326.75,204.96 L 329.00 201.70 L 329.00 152.82 C329.00,100.34 329.11,99.14 334.12,95.63 C336.15,94.21 340.43,94.00 367.84,94.00 L 399.24 94.00 L 403.10 97.87 L 406.97 101.73 L 406.99 217.88 C407.01,317.03 406.80,334.53 405.57,337.49 C403.95,341.37 398.56,345.54 387.70,351.34 C383.74,353.45 380.05,355.54 379.50,355.98 C378.06,357.14 353.88,371.00 353.30,371.00 C353.03,371.00 351.61,371.85 350.15,372.88 C348.69,373.92 345.84,375.70 343.81,376.83 C341.78,377.97 329.40,385.11 316.31,392.70 L 292.50 406.50 L 277.00 406.65 C268.48,406.73 260.51,406.59 259.30,406.33 ZM 194.78 281.82 C197.64,279.98 199.80,278.47 199.62,278.29 C199.37,278.04 196.65,279.44 193.58,281.40 C190.51,283.37 184.92,286.53 181.14,288.43 C178.28,289.87 176.19,290.71 174.66,292.15 C170.18,296.35 170.46,305.63 170.19,349.62 L 169.88 399.74 L 166.88 402.62 L 163.87 405.50 L 102.19 405.97 L 94.50 399.13 L 94.50 164.05 C94.64,163.16 94.80,162.37 94.97,161.66 L 96.84 159.67 C98.12,158.31 101.72,155.77 104.84,154.05 C107.95,152.32 115.90,147.75 122.50,143.88 C129.10,140.01 137.20,135.37 140.50,133.57 C145.93,130.60 158.22,123.41 162.00,120.98 C162.82,120.45 165.52,118.92 168.00,117.59 C170.48,116.25 173.40,114.43 174.50,113.53 C177.38,111.19 162.20,119.26 150.70,126.19 C145.31,129.44 140.17,132.38 139.28,132.72 C140.17,132.38 145.44,129.36 150.98,126.01 C156.52,122.66 165.21,117.75 170.28,115.09 C175.35,112.44 186.02,106.60 193.99,102.13 L 208.48 94.00 L 224.79 94.00 C237.41,94.00 241.76,94.34 244.03,95.52 C244.95,95.99 245.73,96.33 246.39,96.83 C250.16,99.69 250.00,107.72 250.00,175.78 L 250.00 248.65 L 247.75 250.68 C245.71,252.53 234.28,259.23 214.00,270.48 C209.88,272.77 201.23,277.87 194.78,281.82 ZM 173.31 296.28 C174.55,294.04 180.70,289.00 182.18,289.00 C182.22,289.00 182.26,288.99 182.32,288.98 C182.28,288.99 182.24,289.00 182.22,289.00 C180.71,289.00 174.56,294.01 173.31,296.28 Z" fill="rgba(4,84,239,1)"/>
<path d="M 97.24 403.58 L 93.50 400.15 L 93.25 281.83 C92.95,145.08 91.65,160.06 104.48,152.78 C108.63,150.43 117.79,145.09 124.84,140.92 C131.89,136.75 138.39,133.07 139.28,132.72 C140.17,132.38 145.31,129.44 150.70,126.19 C162.20,119.26 177.38,111.19 174.50,113.53 C173.40,114.43 170.48,116.25 168.00,117.59 C165.52,118.92 162.82,120.45 162.00,120.98 C158.22,123.41 145.93,130.60 140.50,133.57 C137.20,135.37 129.10,140.01 122.50,143.88 C115.90,147.75 107.95,152.32 104.84,154.05 C101.72,155.77 98.12,158.31 96.84,159.67 L 94.50 162.16 L 94.50 280.65 L 94.50 399.13 L 98.34 402.55 L 102.19 405.97 L 133.03 405.74 L 163.87 405.50 L 166.88 402.62 L 169.88 399.74 L 170.19 349.62 C170.55,290.57 169.93,294.08 181.14,288.43 C184.92,286.53 190.51,283.37 193.58,281.40 C196.65,279.44 199.37,278.04 199.62,278.29 C200.12,278.78 183.48,289.00 182.18,289.00 C180.70,289.00 174.55,294.04 173.31,296.28 C172.37,297.95 172.06,310.47 172.04,347.28 C172.00,400.20 171.97,400.52 166.49,404.83 C163.79,406.95 163.03,407.00 132.35,407.00 L 100.97 407.00 L 97.24 403.58 Z" fill="rgba(46,96,190,1)"/>
</g>
</svg>